<?xml version="1.0" encoding="UTF-8" standalone="no"?>
<!-- Created with Inkscape (http://www.inkscape.org/) -->

<svg
   xmlns:dc="http://purl.org/dc/elements/1.1/"
   xmlns:cc="http://creativecommons.org/ns#"
   xmlns:rdf="http://www.w3.org/1999/02/22-rdf-syntax-ns#"
   xmlns:svg="http://www.w3.org/2000/svg"
   xmlns="http://www.w3.org/2000/svg"
   xmlns:sodipodi="http://sodipodi.sourceforge.net/DTD/sodipodi-0.dtd"
   xmlns:inkscape="http://www.inkscape.org/namespaces/inkscape"
   width="500"
   height="500"
   id="svg21236"
   version="1.1"
   inkscape:version="0.48.2 r9819"
   sodipodi:docname="sprite.svg"
   inkscape:export-filename="/Users/tristen/github/substance/public/images/sprite.png"
   inkscape:export-xdpi="90"
   inkscape:export-ydpi="90">
  <defs
     id="defs21238" />
  <sodipodi:namedview
     id="base"
     pagecolor="#ffffff"
     bordercolor="#666666"
     borderopacity="1.0"
     inkscape:pageopacity="0.0"
     inkscape:pageshadow="2"
     inkscape:zoom="0.84845693"
     inkscape:cx="477.75512"
     inkscape:cy="352.08756"
     inkscape:document-units="px"
     inkscape:current-layer="layer1"
     showgrid="true"
     inkscape:window-width="1059"
     inkscape:window-height="673"
     inkscape:window-x="248"
     inkscape:window-y="0"
     inkscape:window-maximized="0">
    <inkscape:grid
       type="xygrid"
       id="grid21258"
       empspacing="5"
       visible="true"
       enabled="true"
       snapvisiblegridlinesonly="true"
       empcolor="#001356"
       empopacity="0.1254902"
       color="#000000"
       opacity="0.11764706" />
  </sodipodi:namedview>
  <metadata
     id="metadata21241">
    <rdf:RDF>
      <cc:Work
         rdf:about="">
        <dc:format>image/svg+xml</dc:format>
        <dc:type
           rdf:resource="http://purl.org/dc/dcmitype/StillImage" />
        <dc:title></dc:title>
      </cc:Work>
    </rdf:RDF>
  </metadata>
  <g
     inkscape:groupmode="layer"
     id="layer4"
     inkscape:label="base"
     style="display:none">
    <rect
       style="color:#000000;fill:#e6e6e6;fill-opacity:1;fill-rule:nonzero;stroke:none;stroke-width:0.82966393;marker:none;visibility:visible;display:inline;overflow:visible;enable-background:accumulate"
       id="rect21815"
       width="500"
       height="500"
       x="0"
       y="-5.6843419e-14" />
  </g>
  <g
     inkscape:label="sprite"
     inkscape:groupmode="layer"
     id="layer1"
     transform="translate(0,-552.36218)">
    <g
       style="font-size:45.36097717px;font-style:normal;font-variant:normal;font-weight:normal;font-stretch:normal;line-height:125%;letter-spacing:0px;word-spacing:0px;fill:#ffffff;fill-opacity:1;stroke:none;display:inline;font-family:Sans;-inkscape-font-specification:Palatino"
       id="text17769">
      <path
         d="m 5.4492187,568.20007 c -1.2968801,0 -2.4101602,-0.42187 -3.3398437,-1.26562 l -0.011719,1.04297 -2.0039063,0 0,-4.76953 2.0039063,0 0,1.28906 c 0.3749965,0.60156 0.8007773,1.05859 1.2773437,1.37109 0.4765576,0.30469 1.0546821,0.45703 1.734375,0.45703 0.367181,0 0.6992119,-0.0508 0.9960937,-0.15234 0.3046801,-0.10937 0.5624924,-0.25781 0.7734375,-0.44531 0.2187419,-0.1875 0.3867105,-0.41016 0.5039063,-0.66797 0.117179,-0.25781 0.1757727,-0.53906 0.1757812,-0.84375 -8.5e-6,-0.40625 -0.093758,-0.74609 -0.28125,-1.01953 -0.187508,-0.27344 -0.441414,-0.50781 -0.7617187,-0.70313 -0.3203197,-0.1953 -0.6992256,-0.36718 -1.1367188,-0.51562 C 4.9414003,561.82899 4.4726508,561.68055 3.9726563,561.5321 3.4492143,561.37586 2.9453085,561.19617 2.4609375,560.99304 1.984372,560.78992 1.5624974,560.53211 1.1953125,560.2196 0.83593566,559.8993 0.54687345,559.51258 0.328125,559.05945 0.10937388,558.60633 -1.0078125e-6,558.05555 0,557.4071 c -1.0078125e-6,-0.64061 0.10937388,-1.20311 0.328125,-1.6875 0.22656094,-0.48436 0.53515438,-0.8867 0.9257812,-1.20703 0.3984349,-0.32811 0.8632782,-0.5742 1.3945313,-0.73828 0.5390583,-0.16405 1.1249952,-0.24608 1.7578125,-0.24609 0.5546815,10e-6 1.0781185,0.0938 1.5703125,0.28125 0.49218,0.18751 0.9335858,0.46486 1.3242187,0.83203 l 0,-0.90234 1.9804688,0 0,4.11328 -1.9804688,0 0,-1.13672 c -0.3515704,-0.4453 -0.742195,-0.77733 -1.171875,-0.9961 -0.4218817,-0.21873 -0.9140687,-0.32811 -1.4765625,-0.32812 -0.3750052,10e-6 -0.7070362,0.0469 -0.9960937,0.14062 -0.2890669,0.0938 -0.5351604,0.21877 -0.7382812,0.375 -0.2031288,0.15627 -0.3593786,0.34377 -0.46875,0.5625 -0.1015659,0.21095 -0.1523471,0.43752 -0.1523438,0.67969 -3.3e-6,0.41407 0.1093716,0.75392 0.328125,1.01953 0.2265586,0.26564 0.5195271,0.49611 0.8789063,0.69141 0.3593701,0.18751 0.7695259,0.35548 1.2304687,0.50391 0.4687438,0.14063 0.9413996,0.29297 1.4179687,0.45703 0.4843674,0.16407 0.9570232,0.35157 1.4179688,0.5625 0.468741,0.21094 0.882803,0.48047 1.2421875,0.80859 0.3593648,0.32032 0.648427,0.71485 0.8671875,1.18359 0.2265516,0.46876 0.3398325,1.03907 0.3398435,1.71094 -1.1e-5,0.64844 -0.1250107,1.22657 -0.3749997,1.73438 -0.242198,0.50781 -0.5742289,0.9375 -0.9960938,1.28906 -0.4140717,0.35156 -0.8984463,0.62109 -1.453125,0.80859 -0.5546951,0.1875 -1.1367258,0.28125 -1.7460938,0.28125"
         style="font-size:24px;font-weight:bold;fill:#ffffff;font-family:Rokkitt;-inkscape-font-specification:Rokkitt Bold"
         id="path21841" />
      <path
         d="m 22.992187,566.32507 0,1.65235 -3.996093,0 -0.04687,-1.125 c -0.515633,0.44531 -1.042976,0.78125 -1.582032,1.00781 -0.531256,0.22656 -1.07813,0.33984 -1.640624,0.33984 -0.539067,0 -1.007817,-0.0781 -1.40625,-0.23437 -0.390629,-0.15625 -0.714847,-0.37891 -0.972657,-0.66797 -0.257815,-0.28906 -0.449221,-0.64062 -0.574218,-1.05469 -0.11719,-0.42187 -0.175784,-0.89453 -0.175782,-1.41797 l 0,-5.15625 -1.488281,0 0,-1.64062 3.796875,0 0,6.52734 c -4e-6,0.59375 0.101558,1.04688 0.304688,1.35938 0.210932,0.30469 0.582026,0.45703 1.113281,0.45703 0.476556,0 0.937493,-0.12891 1.382812,-0.38672 0.453118,-0.26562 0.86718,-0.61328 1.242188,-1.04297 l 0,-5.27344 -1.652344,0 0,-1.64062 3.972656,0 0,8.29687 1.722656,0"
         style="font-size:24px;font-weight:bold;fill:#ffffff;font-family:Rokkitt;-inkscape-font-specification:Rokkitt Bold"
         id="path21843" />
      <path
         d="m 27.925781,553.73914 0,5.44921 c 0.499995,-0.46874 1.01562,-0.81249 1.546875,-1.03125 0.539056,-0.21874 1.156243,-0.32811 1.851563,-0.32812 0.718741,10e-6 1.367178,0.13282 1.945312,0.39844 0.585927,0.25782 1.085927,0.61329 1.5,1.0664 0.414051,0.45314 0.730457,0.9922 0.949219,1.61719 0.22655,0.61719 0.339831,1.28126 0.339844,1.99219 -1.3e-5,0.80469 -0.121106,1.53516 -0.363282,2.1914 -0.242199,0.64844 -0.578136,1.20313 -1.007812,1.66407 -0.429698,0.46094 -0.933604,0.8164 -1.511719,1.0664 -0.578134,0.25 -1.199227,0.375 -1.863281,0.375 -0.32032,0 -0.644538,-0.0312 -0.972656,-0.0937 -0.320319,-0.0625 -0.628913,-0.15234 -0.925782,-0.26953 -0.29688,-0.125 -0.574224,-0.27734 -0.832031,-0.45703 -0.257817,-0.17969 -0.480473,-0.38672 -0.667969,-0.62109 l -0.01172,1.21875 -3.984375,0 0,-1.65235 1.675781,0 0,-10.94531 -1.722656,0 0,-1.64062 4.054687,0 m 5.707031,9.32812 c -1e-5,-0.49218 -0.07032,-0.94531 -0.210937,-1.35937 -0.132822,-0.41406 -0.328135,-0.77343 -0.585938,-1.07813 -0.250009,-0.30468 -0.558602,-0.54296 -0.925781,-0.71484 -0.367195,-0.17187 -0.785164,-0.25781 -1.253906,-0.25782 -0.367194,10e-6 -0.707038,0.0625 -1.019531,0.1875 -0.304694,0.1172 -0.574225,0.25782 -0.808594,0.42188 -0.23438,0.15626 -0.429692,0.31641 -0.585938,0.48047 -0.156254,0.15626 -0.261723,0.27344 -0.316406,0.35156 l 0,3.91406 c 0.0625,0.0703 0.171871,0.1836 0.328125,0.33985 0.164058,0.14844 0.363276,0.30078 0.597656,0.45703 0.242182,0.14844 0.51562,0.28125 0.820313,0.39844 0.304681,0.10937 0.640618,0.16406 1.007812,0.16406 0.468743,0 0.882805,-0.0781 1.242188,-0.23438 0.367179,-0.16406 0.675772,-0.39062 0.925781,-0.67968 0.257803,-0.29688 0.453116,-0.64844 0.585938,-1.05469 0.132802,-0.40625 0.199208,-0.85156 0.199218,-1.33594"
         style="font-size:24px;font-weight:bold;fill:#ffffff;font-family:Rokkitt;-inkscape-font-specification:Rokkitt Bold"
         id="path21845" />
      <path
         d="m 37.839844,564.66101 1.828125,0 0,0.78516 c 0.218747,0.36719 0.539059,0.64844 0.960937,0.84375 0.429684,0.19531 0.925777,0.29297 1.488281,0.29297 0.664057,0 1.175775,-0.10157 1.535157,-0.30469 0.359368,-0.21094 0.539055,-0.51953 0.539062,-0.92578 -7e-6,-0.25781 -0.09376,-0.46484 -0.28125,-0.6211 -0.179694,-0.16406 -0.421881,-0.30077 -0.726562,-0.41015 -0.304694,-0.10937 -0.65235,-0.20312 -1.042969,-0.28125 -0.382817,-0.0859 -0.777348,-0.17969 -1.183594,-0.28125 -0.406253,-0.10156 -0.804691,-0.22265 -1.195312,-0.36328 -0.382815,-0.14062 -0.726565,-0.32422 -1.03125,-0.55079 -0.304689,-0.23437 -0.550783,-0.52343 -0.738282,-0.86718 -0.179688,-0.34375 -0.269532,-0.76953 -0.269531,-1.27735 -10e-7,-0.39843 0.08594,-0.77343 0.257813,-1.125 0.179686,-0.35155 0.429686,-0.65624 0.75,-0.91406 0.32031,-0.2578 0.707028,-0.46093 1.160156,-0.60937 0.453121,-0.14843 0.957027,-0.22265 1.511719,-0.22266 0.460932,10e-6 0.906244,0.0703 1.335937,0.21094 0.429681,0.13282 0.800775,0.33594 1.113281,0.60937 l 0,-0.62109 1.898438,0 0,3.09375 -1.898438,0 0,-0.8086 c -0.242194,-0.28124 -0.539068,-0.49608 -0.890625,-0.64453 -0.351568,-0.15624 -0.785161,-0.23436 -1.300781,-0.23437 -0.578129,10e-6 -1.03516,0.10157 -1.371094,0.30469 -0.328128,0.19532 -0.49219,0.47266 -0.492187,0.83203 -3e-6,0.24219 0.09375,0.44141 0.28125,0.59765 0.187497,0.14845 0.43359,0.27345 0.738281,0.375 0.304683,0.10157 0.652339,0.19142 1.042969,0.26953 0.39062,0.0781 0.789057,0.16798 1.195312,0.26954 0.406244,0.10156 0.804681,0.22656 1.195313,0.375 0.390617,0.14844 0.738273,0.34375 1.042969,0.58593 0.304678,0.2422 0.550772,0.54688 0.738281,0.91407 0.187491,0.35937 0.281241,0.80078 0.28125,1.32421 -9e-6,0.42969 -0.08985,0.82423 -0.269531,1.1836 -0.179697,0.35937 -0.441415,0.66797 -0.785157,0.92578 -0.335945,0.25781 -0.746101,0.45703 -1.230468,0.59766 -0.484382,0.14062 -1.02735,0.21093 -1.628907,0.21093 -0.617192,0 -1.140629,-0.0664 -1.570312,-0.19922 -0.421879,-0.13281 -0.808597,-0.33984 -1.160156,-0.62109 l 0,0.59766 -1.828125,0 0,-3.31641"
         style="font-size:24px;font-weight:bold;fill:#ffffff;font-family:Rokkitt;-inkscape-font-specification:Rokkitt Bold"
         id="path21847" />
      <path
         d="m 47.460937,559.66882 0,-1.64062 1.476563,0 0,-3.07031 2.285156,-0.52735 0,3.59766 2.378906,0 0,1.64062 -2.378906,0 0,5.27344 c -4e-6,0.5 0.05468,0.85547 0.164063,1.06641 0.10937,0.21094 0.316401,0.3164 0.621093,0.3164 l 1.699219,0 0,1.65235 -2.15625,0 c -0.929691,0 -1.601565,-0.25 -2.015625,-0.75 -0.414064,-0.5 -0.621095,-1.21875 -0.621094,-2.15625 l 0,-5.40235 -1.453125,0"
         style="font-size:24px;font-weight:bold;fill:#ffffff;font-family:Rokkitt;-inkscape-font-specification:Rokkitt Bold"
         id="path21849" />
      <path
         d="m 58.160156,568.20007 c -0.515628,0 -0.984378,-0.0781 -1.40625,-0.23437 -0.421877,-0.16406 -0.781252,-0.38281 -1.078125,-0.65625 -0.289064,-0.27344 -0.515626,-0.58594 -0.679687,-0.9375 -0.156251,-0.35937 -0.234376,-0.73437 -0.234375,-1.125 -10e-7,-0.58594 0.109374,-1.08203 0.328125,-1.48828 0.218748,-0.40625 0.523436,-0.73437 0.914062,-0.98438 0.390623,-0.25781 0.847654,-0.4414 1.371094,-0.55078 0.531246,-0.11718 1.109371,-0.17577 1.734375,-0.17578 0.374995,10e-6 0.742182,0.0234 1.101562,0.0703 0.367181,0.0391 0.749994,0.0977 1.148438,0.17578 l 0,-1.00781 c -7e-6,-0.3203 -0.0547,-0.59765 -0.164063,-0.83203 -0.109382,-0.23437 -0.261725,-0.42577 -0.457031,-0.57422 -0.187506,-0.15624 -0.414069,-0.26952 -0.679687,-0.33984 -0.257819,-0.0781 -0.539068,-0.11718 -0.84375,-0.11719 -0.64063,10e-6 -1.179692,0.0938 -1.617188,0.28125 -0.42969,0.18751 -0.824221,0.46094 -1.183594,0.82031 l -1.183593,-1.3125 c 0.468748,-0.46093 1.054685,-0.80468 1.757812,-1.03125 0.703122,-0.23436 1.515621,-0.35155 2.4375,-0.35156 0.789057,10e-6 1.453118,0.086 1.992188,0.25781 0.539054,0.17189 0.972648,0.41017 1.300781,0.71485 0.335928,0.30469 0.574209,0.66797 0.714844,1.08984 0.148428,0.41407 0.222646,0.86719 0.222656,1.35937 l 0,5.07422 1.722656,0 0,1.65235 -3.808594,0 -0.105468,-1.03125 c -0.304695,0.23437 -0.593757,0.43359 -0.867188,0.59765 -0.273444,0.15625 -0.542975,0.28516 -0.808594,0.38672 -0.257818,0.0937 -0.523442,0.16016 -0.796875,0.19922 -0.265629,0.0469 -0.542973,0.0703 -0.832031,0.0703 m 3.199219,-4.53515 c -0.296882,-0.0234 -0.628913,-0.0625 -0.996094,-0.11719 -0.359381,-0.0547 -0.730474,-0.082 -1.113281,-0.082 -0.304692,0 -0.597661,0.0274 -0.878906,0.082 -0.273442,0.0469 -0.515629,0.13672 -0.726563,0.26953 -0.210941,0.125 -0.378909,0.29688 -0.503906,0.51563 -0.125003,0.21875 -0.187503,0.5 -0.1875,0.84375 -3e-6,0.21094 0.03906,0.40625 0.117187,0.58593 0.07812,0.17969 0.187497,0.33985 0.328125,0.48047 0.148434,0.13282 0.328122,0.23828 0.539063,0.31641 0.210933,0.0781 0.449214,0.11719 0.714844,0.11719 0.468745,0 0.937494,-0.0859 1.40625,-0.25782 0.468743,-0.17187 0.902337,-0.42187 1.300781,-0.75 l 0,-2.0039"
         style="font-size:24px;font-weight:bold;fill:#ffffff;font-family:Rokkitt;-inkscape-font-specification:Rokkitt Bold"
         id="path21851" />
      <path
         d="m 66.175781,559.66882 0,-1.64062 4.03125,0 c -4e-6,0.0625 -4e-6,0.15235 0,0.26953 -4e-6,0.1172 -4e-6,0.2422 0,0.375 0.0078,0.12501 0.01171,0.2422 0.01172,0.35156 0.0078,0.10939 0.01171,0.1836 0.01172,0.22266 0.585932,-0.46874 1.144525,-0.8203 1.675781,-1.05469 0.539056,-0.24218 1.093742,-0.36327 1.664062,-0.36328 0.421867,10e-6 0.812492,0.0703 1.171875,0.21094 0.367178,0.14063 0.679678,0.34766 0.9375,0.62109 0.265615,0.27345 0.472646,0.6172 0.621094,1.03125 0.156239,0.40626 0.234364,0.87891 0.234375,1.41797 -1.1e-5,0.0703 -1.1e-5,0.19922 0,0.38672 -1.1e-5,0.17969 -0.0039,0.39844 -0.01172,0.65625 -1.1e-5,0.25782 -1.1e-5,0.54297 0,0.85547 -1.1e-5,0.30469 -1.1e-5,0.60938 0,0.91406 l 0,2.40234 1.675782,0 0,1.65235 -5.0625,0 0,-1.65235 1.101562,0 0,-4.61718 c -9e-6,-0.67187 -0.09767,-1.18359 -0.292969,-1.53516 -0.187508,-0.35155 -0.523445,-0.52734 -1.007812,-0.52734 -0.500007,0 -0.980475,0.13282 -1.441406,0.39843 -0.453131,0.25782 -0.875005,0.58595 -1.265625,0.98438 l 0,5.29687 1.417968,0 0,1.65235 -5.425781,0 0,-1.65235 1.6875,0 0,-6.65625 -1.734375,0"
         style="font-size:24px;font-weight:bold;fill:#ffffff;font-family:Rokkitt;-inkscape-font-specification:Rokkitt Bold"
         id="path21853" />
      <path
         d="m 88.792969,561.70789 -1.839844,0 c -0.07813,-0.29687 -0.187508,-0.57031 -0.328125,-0.82032 -0.132821,-0.2578 -0.304695,-0.47655 -0.515625,-0.65625 -0.203133,-0.18749 -0.44532,-0.33202 -0.726563,-0.43359 -0.281256,-0.10155 -0.605475,-0.15234 -0.972656,-0.15234 -0.460943,0 -0.875005,0.0781 -1.242187,0.23437 -0.35938,0.15626 -0.664067,0.37891 -0.914063,0.66797 -0.242191,0.28907 -0.429691,0.64063 -0.5625,1.05469 -0.125003,0.40625 -0.187503,0.85938 -0.1875,1.35937 -3e-6,0.51563 0.0625,0.98438 0.1875,1.40625 0.132809,0.42188 0.320309,0.78125 0.5625,1.07813 0.249996,0.29687 0.554683,0.52734 0.914063,0.6914 0.367182,0.15625 0.781244,0.23438 1.242187,0.23438 0.609369,0 1.179681,-0.13281 1.710938,-0.39844 0.539054,-0.27343 0.976554,-0.67578 1.3125,-1.20703 l 1.558593,0.99609 c -0.46876,0.80469 -1.085947,1.41407 -1.851562,1.82813 -0.75782,0.40625 -1.679695,0.60937 -2.765625,0.60937 -0.89063,0 -1.667973,-0.14843 -2.332031,-0.44531 -0.664066,-0.29687 -1.214846,-0.6875 -1.652344,-1.17187 -0.437502,-0.48438 -0.765626,-1.03516 -0.984375,-1.65235 -0.210938,-0.62499 -0.316407,-1.26171 -0.316406,-1.91015 -10e-7,-0.72656 0.121093,-1.40625 0.363281,-2.03907 0.249999,-0.6328 0.597655,-1.18358 1.042969,-1.65234 0.44531,-0.46874 0.976559,-0.83593 1.59375,-1.10156 0.617183,-0.26562 1.29687,-0.39843 2.039062,-0.39844 0.304682,10e-6 0.593744,0.0313 0.867188,0.0937 0.27343,0.0625 0.527336,0.14845 0.761718,0.25781 0.234368,0.10157 0.445305,0.22267 0.632813,0.36328 0.195304,0.13283 0.363273,0.27345 0.503906,0.42188 l -0.01172,-0.9375 1.910157,0 0,3.67969"
         style="font-size:24px;font-weight:bold;fill:#ffffff;font-family:Rokkitt;-inkscape-font-specification:Rokkitt Bold"
         id="path21855" />
      <path
         d="m 100.5,566.37195 c -0.44532,0.57812 -1.046885,1.02734 -1.804688,1.34765 -0.75782,0.32032 -1.648444,0.48047 -2.671875,0.48047 -0.85938,0 -1.632817,-0.1289 -2.320312,-0.38672 -0.687503,-0.26562 -1.27344,-0.62499 -1.757813,-1.07812 -0.476564,-0.46094 -0.843751,-1.0039 -1.101562,-1.62891 -0.257813,-0.63281 -0.386719,-1.3164 -0.386719,-2.05078 0,-0.7578 0.136718,-1.45702 0.410156,-2.09765 0.273437,-0.64062 0.652342,-1.1914 1.136719,-1.65235 0.492185,-0.46874 1.070309,-0.83202 1.734375,-1.08984 0.664058,-0.2578 1.39062,-0.38671 2.179688,-0.38672 0.828118,10e-6 1.55468,0.14454 2.179687,0.43359 0.624991,0.28908 1.144522,0.69142 1.558594,1.20703 0.42186,0.50782 0.73827,1.10548 0.94922,1.79297 0.21093,0.68751 0.31639,1.4297 0.31641,2.22657 l -8.039068,0 c 0.03125,0.42187 0.117185,0.8125 0.257813,1.17187 0.148434,0.35938 0.355465,0.67188 0.621094,0.9375 0.273433,0.25782 0.605464,0.46094 0.996093,0.60938 0.398433,0.14843 0.855463,0.22265 1.371094,0.22265 0.554681,0 1.105462,-0.10937 1.652344,-0.32812 0.554679,-0.21875 1.039053,-0.53516 1.453125,-0.94922 L 100.5,566.37195 m -1.816406,-4.26563 c -0.0547,-0.37499 -0.156259,-0.71874 -0.304688,-1.03125 -0.140633,-0.31249 -0.328133,-0.58202 -0.5625,-0.80859 -0.22657,-0.23437 -0.500007,-0.41405 -0.820312,-0.53906 -0.32032,-0.13281 -0.683601,-0.19921 -1.089844,-0.19922 -0.882818,10e-6 -1.570317,0.23438 -2.0625,0.70312 -0.484379,0.46876 -0.792972,1.09376 -0.925781,1.875 l 5.765625,0"
         style="font-size:24px;font-weight:bold;fill:#ffffff;font-family:Rokkitt;-inkscape-font-specification:Rokkitt Bold"
         id="path21857" />
    </g>
    <g
       style="font-size:45.36097717px;font-style:normal;font-variant:normal;font-weight:normal;font-stretch:normal;line-height:125%;letter-spacing:0px;word-spacing:0px;fill:#404040;fill-opacity:1;stroke:none;display:inline;font-family:Sans;-inkscape-font-specification:Palatino"
       id="text4393">
      <path
         d="m 5.4492187,567.20007 c -1.2968801,0 -2.4101602,-0.42187 -3.3398437,-1.26562 l -0.011719,1.04297 -2.0039063,0 0,-4.76953 2.0039063,0 0,1.28906 c 0.3749965,0.60156 0.8007773,1.05859 1.2773437,1.37109 0.4765576,0.30469 1.0546821,0.45703 1.734375,0.45703 0.367181,0 0.6992119,-0.0508 0.9960937,-0.15234 0.3046801,-0.10937 0.5624924,-0.25781 0.7734375,-0.44531 0.2187419,-0.1875 0.3867105,-0.41016 0.5039063,-0.66797 0.117179,-0.25781 0.1757727,-0.53906 0.1757812,-0.84375 -8.5e-6,-0.40625 -0.093758,-0.74609 -0.28125,-1.01953 -0.187508,-0.27344 -0.441414,-0.50781 -0.7617187,-0.70313 -0.3203197,-0.1953 -0.6992256,-0.36718 -1.1367188,-0.51562 C 4.9414003,560.82899 4.4726508,560.68055 3.9726563,560.5321 3.4492143,560.37586 2.9453085,560.19617 2.4609375,559.99304 1.984372,559.78992 1.5624974,559.53211 1.1953125,559.2196 0.83593566,558.8993 0.54687345,558.51258 0.328125,558.05945 0.10937388,557.60633 -1.0078125e-6,557.05555 0,556.4071 c -1.0078125e-6,-0.64061 0.10937388,-1.20311 0.328125,-1.6875 0.22656094,-0.48436 0.53515438,-0.8867 0.9257812,-1.20703 0.3984349,-0.32811 0.8632782,-0.5742 1.3945313,-0.73828 0.5390583,-0.16405 1.1249952,-0.24608 1.7578125,-0.24609 0.5546815,10e-6 1.0781185,0.0938 1.5703125,0.28125 0.49218,0.18751 0.9335858,0.46486 1.3242187,0.83203 l 0,-0.90234 1.9804688,0 0,4.11328 -1.9804688,0 0,-1.13672 c -0.3515704,-0.4453 -0.742195,-0.77733 -1.171875,-0.9961 -0.4218817,-0.21873 -0.9140687,-0.32811 -1.4765625,-0.32812 -0.3750052,10e-6 -0.7070362,0.0469 -0.9960937,0.14062 -0.2890669,0.0938 -0.5351604,0.21877 -0.7382812,0.375 -0.2031288,0.15627 -0.3593786,0.34377 -0.46875,0.5625 -0.1015659,0.21095 -0.1523471,0.43752 -0.1523438,0.67969 -3.3e-6,0.41407 0.1093716,0.75392 0.328125,1.01953 0.2265586,0.26564 0.5195271,0.49611 0.8789063,0.69141 0.3593701,0.18751 0.7695259,0.35548 1.2304687,0.50391 0.4687438,0.14063 0.9413996,0.29297 1.4179687,0.45703 0.4843674,0.16407 0.9570232,0.35157 1.4179688,0.5625 0.468741,0.21094 0.882803,0.48047 1.2421875,0.80859 0.3593648,0.32032 0.648427,0.71485 0.8671875,1.18359 0.2265516,0.46876 0.3398325,1.03907 0.3398435,1.71094 -1.1e-5,0.64844 -0.1250107,1.22657 -0.3749997,1.73438 -0.242198,0.50781 -0.5742289,0.9375 -0.9960938,1.28906 -0.4140717,0.35156 -0.8984463,0.62109 -1.453125,0.80859 -0.5546951,0.1875 -1.1367258,0.28125 -1.7460938,0.28125"
         style="font-size:24px;font-weight:bold;fill:#404040;font-family:Rokkitt;-inkscape-font-specification:Rokkitt Bold"
         id="path21822" />
      <path
         d="m 22.992187,565.32507 0,1.65235 -3.996093,0 -0.04687,-1.125 c -0.515633,0.44531 -1.042976,0.78125 -1.582032,1.00781 -0.531256,0.22656 -1.07813,0.33984 -1.640624,0.33984 -0.539067,0 -1.007817,-0.0781 -1.40625,-0.23437 -0.390629,-0.15625 -0.714847,-0.37891 -0.972657,-0.66797 -0.257815,-0.28906 -0.449221,-0.64062 -0.574218,-1.05469 -0.11719,-0.42187 -0.175784,-0.89453 -0.175782,-1.41797 l 0,-5.15625 -1.488281,0 0,-1.64062 3.796875,0 0,6.52734 c -4e-6,0.59375 0.101558,1.04688 0.304688,1.35938 0.210932,0.30469 0.582026,0.45703 1.113281,0.45703 0.476556,0 0.937493,-0.12891 1.382812,-0.38672 0.453118,-0.26562 0.86718,-0.61328 1.242188,-1.04297 l 0,-5.27344 -1.652344,0 0,-1.64062 3.972656,0 0,8.29687 1.722656,0"
         style="font-size:24px;font-weight:bold;fill:#404040;font-family:Rokkitt;-inkscape-font-specification:Rokkitt Bold"
         id="path21824" />
      <path
         d="m 27.925781,552.73914 0,5.44921 c 0.499995,-0.46874 1.01562,-0.81249 1.546875,-1.03125 0.539056,-0.21874 1.156243,-0.32811 1.851563,-0.32812 0.718741,10e-6 1.367178,0.13282 1.945312,0.39844 0.585927,0.25782 1.085927,0.61329 1.5,1.0664 0.414051,0.45314 0.730457,0.9922 0.949219,1.61719 0.22655,0.61719 0.339831,1.28126 0.339844,1.99219 -1.3e-5,0.80469 -0.121106,1.53516 -0.363282,2.1914 -0.242199,0.64844 -0.578136,1.20313 -1.007812,1.66407 -0.429698,0.46094 -0.933604,0.8164 -1.511719,1.0664 -0.578134,0.25 -1.199227,0.375 -1.863281,0.375 -0.32032,0 -0.644538,-0.0312 -0.972656,-0.0937 -0.320319,-0.0625 -0.628913,-0.15234 -0.925782,-0.26953 -0.29688,-0.125 -0.574224,-0.27734 -0.832031,-0.45703 -0.257817,-0.17969 -0.480473,-0.38672 -0.667969,-0.62109 l -0.01172,1.21875 -3.984375,0 0,-1.65235 1.675781,0 0,-10.94531 -1.722656,0 0,-1.64062 4.054687,0 m 5.707031,9.32812 c -1e-5,-0.49218 -0.07032,-0.94531 -0.210937,-1.35937 -0.132822,-0.41406 -0.328135,-0.77343 -0.585938,-1.07813 -0.250009,-0.30468 -0.558602,-0.54296 -0.925781,-0.71484 -0.367195,-0.17187 -0.785164,-0.25781 -1.253906,-0.25782 -0.367194,10e-6 -0.707038,0.0625 -1.019531,0.1875 -0.304694,0.1172 -0.574225,0.25782 -0.808594,0.42188 -0.23438,0.15626 -0.429692,0.31641 -0.585938,0.48047 -0.156254,0.15626 -0.261723,0.27344 -0.316406,0.35156 l 0,3.91406 c 0.0625,0.0703 0.171871,0.1836 0.328125,0.33985 0.164058,0.14844 0.363276,0.30078 0.597656,0.45703 0.242182,0.14844 0.51562,0.28125 0.820313,0.39844 0.304681,0.10937 0.640618,0.16406 1.007812,0.16406 0.468743,0 0.882805,-0.0781 1.242188,-0.23438 0.367179,-0.16406 0.675772,-0.39062 0.925781,-0.67968 0.257803,-0.29688 0.453116,-0.64844 0.585938,-1.05469 0.132802,-0.40625 0.199208,-0.85156 0.199218,-1.33594"
         style="font-size:24px;font-weight:bold;fill:#404040;font-family:Rokkitt;-inkscape-font-specification:Rokkitt Bold"
         id="path21826" />
      <path
         d="m 37.839844,563.66101 1.828125,0 0,0.78516 c 0.218747,0.36719 0.539059,0.64844 0.960937,0.84375 0.429684,0.19531 0.925777,0.29297 1.488281,0.29297 0.664057,0 1.175775,-0.10157 1.535157,-0.30469 0.359368,-0.21094 0.539055,-0.51953 0.539062,-0.92578 -7e-6,-0.25781 -0.09376,-0.46484 -0.28125,-0.6211 -0.179694,-0.16406 -0.421881,-0.30077 -0.726562,-0.41015 -0.304694,-0.10937 -0.65235,-0.20312 -1.042969,-0.28125 -0.382817,-0.0859 -0.777348,-0.17969 -1.183594,-0.28125 -0.406253,-0.10156 -0.804691,-0.22265 -1.195312,-0.36328 -0.382815,-0.14062 -0.726565,-0.32422 -1.03125,-0.55079 -0.304689,-0.23437 -0.550783,-0.52343 -0.738282,-0.86718 -0.179688,-0.34375 -0.269532,-0.76953 -0.269531,-1.27735 -10e-7,-0.39843 0.08594,-0.77343 0.257813,-1.125 0.179686,-0.35155 0.429686,-0.65624 0.75,-0.91406 0.32031,-0.2578 0.707028,-0.46093 1.160156,-0.60937 0.453121,-0.14843 0.957027,-0.22265 1.511719,-0.22266 0.460932,10e-6 0.906244,0.0703 1.335937,0.21094 0.429681,0.13282 0.800775,0.33594 1.113281,0.60937 l 0,-0.62109 1.898438,0 0,3.09375 -1.898438,0 0,-0.8086 c -0.242194,-0.28124 -0.539068,-0.49608 -0.890625,-0.64453 -0.351568,-0.15624 -0.785161,-0.23436 -1.300781,-0.23437 -0.578129,10e-6 -1.03516,0.10157 -1.371094,0.30469 -0.328128,0.19532 -0.49219,0.47266 -0.492187,0.83203 -3e-6,0.24219 0.09375,0.44141 0.28125,0.59765 0.187497,0.14845 0.43359,0.27345 0.738281,0.375 0.304683,0.10157 0.652339,0.19142 1.042969,0.26953 0.39062,0.0781 0.789057,0.16798 1.195312,0.26954 0.406244,0.10156 0.804681,0.22656 1.195313,0.375 0.390617,0.14844 0.738273,0.34375 1.042969,0.58593 0.304678,0.2422 0.550772,0.54688 0.738281,0.91407 0.187491,0.35937 0.281241,0.80078 0.28125,1.32421 -9e-6,0.42969 -0.08985,0.82423 -0.269531,1.1836 -0.179697,0.35937 -0.441415,0.66797 -0.785157,0.92578 -0.335945,0.25781 -0.746101,0.45703 -1.230468,0.59766 -0.484382,0.14062 -1.02735,0.21093 -1.628907,0.21093 -0.617192,0 -1.140629,-0.0664 -1.570312,-0.19922 -0.421879,-0.13281 -0.808597,-0.33984 -1.160156,-0.62109 l 0,0.59766 -1.828125,0 0,-3.31641"
         style="font-size:24px;font-weight:bold;fill:#404040;font-family:Rokkitt;-inkscape-font-specification:Rokkitt Bold"
         id="path21828" />
      <path
         d="m 47.460937,558.66882 0,-1.64062 1.476563,0 0,-3.07031 2.285156,-0.52735 0,3.59766 2.378906,0 0,1.64062 -2.378906,0 0,5.27344 c -4e-6,0.5 0.05468,0.85547 0.164063,1.06641 0.10937,0.21094 0.316401,0.3164 0.621093,0.3164 l 1.699219,0 0,1.65235 -2.15625,0 c -0.929691,0 -1.601565,-0.25 -2.015625,-0.75 -0.414064,-0.5 -0.621095,-1.21875 -0.621094,-2.15625 l 0,-5.40235 -1.453125,0"
         style="font-size:24px;font-weight:bold;fill:#404040;font-family:Rokkitt;-inkscape-font-specification:Rokkitt Bold"
         id="path21830" />
      <path
         d="m 58.160156,567.20007 c -0.515628,0 -0.984378,-0.0781 -1.40625,-0.23437 -0.421877,-0.16406 -0.781252,-0.38281 -1.078125,-0.65625 -0.289064,-0.27344 -0.515626,-0.58594 -0.679687,-0.9375 -0.156251,-0.35937 -0.234376,-0.73437 -0.234375,-1.125 -10e-7,-0.58594 0.109374,-1.08203 0.328125,-1.48828 0.218748,-0.40625 0.523436,-0.73437 0.914062,-0.98438 0.390623,-0.25781 0.847654,-0.4414 1.371094,-0.55078 0.531246,-0.11718 1.109371,-0.17577 1.734375,-0.17578 0.374995,10e-6 0.742182,0.0234 1.101562,0.0703 0.367181,0.0391 0.749994,0.0977 1.148438,0.17578 l 0,-1.00781 c -7e-6,-0.3203 -0.0547,-0.59765 -0.164063,-0.83203 -0.109382,-0.23437 -0.261725,-0.42577 -0.457031,-0.57422 -0.187506,-0.15624 -0.414069,-0.26952 -0.679687,-0.33984 -0.257819,-0.0781 -0.539068,-0.11718 -0.84375,-0.11719 -0.64063,10e-6 -1.179692,0.0938 -1.617188,0.28125 -0.42969,0.18751 -0.824221,0.46094 -1.183594,0.82031 l -1.183593,-1.3125 c 0.468748,-0.46093 1.054685,-0.80468 1.757812,-1.03125 0.703122,-0.23436 1.515621,-0.35155 2.4375,-0.35156 0.789057,10e-6 1.453118,0.086 1.992188,0.25781 0.539054,0.17189 0.972648,0.41017 1.300781,0.71485 0.335928,0.30469 0.574209,0.66797 0.714844,1.08984 0.148428,0.41407 0.222646,0.86719 0.222656,1.35937 l 0,5.07422 1.722656,0 0,1.65235 -3.808594,0 -0.105468,-1.03125 c -0.304695,0.23437 -0.593757,0.43359 -0.867188,0.59765 -0.273444,0.15625 -0.542975,0.28516 -0.808594,0.38672 -0.257818,0.0937 -0.523442,0.16016 -0.796875,0.19922 -0.265629,0.0469 -0.542973,0.0703 -0.832031,0.0703 m 3.199219,-4.53515 c -0.296882,-0.0234 -0.628913,-0.0625 -0.996094,-0.11719 -0.359381,-0.0547 -0.730474,-0.082 -1.113281,-0.082 -0.304692,0 -0.597661,0.0274 -0.878906,0.082 -0.273442,0.0469 -0.515629,0.13672 -0.726563,0.26953 -0.210941,0.125 -0.378909,0.29688 -0.503906,0.51563 -0.125003,0.21875 -0.187503,0.5 -0.1875,0.84375 -3e-6,0.21094 0.03906,0.40625 0.117187,0.58593 0.07812,0.17969 0.187497,0.33985 0.328125,0.48047 0.148434,0.13282 0.328122,0.23828 0.539063,0.31641 0.210933,0.0781 0.449214,0.11719 0.714844,0.11719 0.468745,0 0.937494,-0.0859 1.40625,-0.25782 0.468743,-0.17187 0.902337,-0.42187 1.300781,-0.75 l 0,-2.0039"
         style="font-size:24px;font-weight:bold;fill:#404040;font-family:Rokkitt;-inkscape-font-specification:Rokkitt Bold"
         id="path21832" />
      <path
         d="m 66.175781,558.66882 0,-1.64062 4.03125,0 c -4e-6,0.0625 -4e-6,0.15235 0,0.26953 -4e-6,0.1172 -4e-6,0.2422 0,0.375 0.0078,0.12501 0.01171,0.2422 0.01172,0.35156 0.0078,0.10939 0.01171,0.1836 0.01172,0.22266 0.585932,-0.46874 1.144525,-0.8203 1.675781,-1.05469 0.539056,-0.24218 1.093742,-0.36327 1.664062,-0.36328 0.421867,10e-6 0.812492,0.0703 1.171875,0.21094 0.367178,0.14063 0.679678,0.34766 0.9375,0.62109 0.265615,0.27345 0.472646,0.6172 0.621094,1.03125 0.156239,0.40626 0.234364,0.87891 0.234375,1.41797 -1.1e-5,0.0703 -1.1e-5,0.19922 0,0.38672 -1.1e-5,0.17969 -0.0039,0.39844 -0.01172,0.65625 -1.1e-5,0.25782 -1.1e-5,0.54297 0,0.85547 -1.1e-5,0.30469 -1.1e-5,0.60938 0,0.91406 l 0,2.40234 1.675782,0 0,1.65235 -5.0625,0 0,-1.65235 1.101562,0 0,-4.61718 c -9e-6,-0.67187 -0.09767,-1.18359 -0.292969,-1.53516 -0.187508,-0.35155 -0.523445,-0.52734 -1.007812,-0.52734 -0.500007,0 -0.980475,0.13282 -1.441406,0.39843 -0.453131,0.25782 -0.875005,0.58595 -1.265625,0.98438 l 0,5.29687 1.417968,0 0,1.65235 -5.425781,0 0,-1.65235 1.6875,0 0,-6.65625 -1.734375,0"
         style="font-size:24px;font-weight:bold;fill:#404040;font-family:Rokkitt;-inkscape-font-specification:Rokkitt Bold"
         id="path21834" />
      <path
         d="m 88.792969,560.70789 -1.839844,0 c -0.07813,-0.29687 -0.187508,-0.57031 -0.328125,-0.82032 -0.132821,-0.2578 -0.304695,-0.47655 -0.515625,-0.65625 -0.203133,-0.18749 -0.44532,-0.33202 -0.726563,-0.43359 -0.281256,-0.10155 -0.605475,-0.15234 -0.972656,-0.15234 -0.460943,0 -0.875005,0.0781 -1.242187,0.23437 -0.35938,0.15626 -0.664067,0.37891 -0.914063,0.66797 -0.242191,0.28907 -0.429691,0.64063 -0.5625,1.05469 -0.125003,0.40625 -0.187503,0.85938 -0.1875,1.35937 -3e-6,0.51563 0.0625,0.98438 0.1875,1.40625 0.132809,0.42188 0.320309,0.78125 0.5625,1.07813 0.249996,0.29687 0.554683,0.52734 0.914063,0.6914 0.367182,0.15625 0.781244,0.23438 1.242187,0.23438 0.609369,0 1.179681,-0.13281 1.710938,-0.39844 0.539054,-0.27343 0.976554,-0.67578 1.3125,-1.20703 l 1.558593,0.99609 c -0.46876,0.80469 -1.085947,1.41407 -1.851562,1.82813 -0.75782,0.40625 -1.679695,0.60937 -2.765625,0.60937 -0.89063,0 -1.667973,-0.14843 -2.332031,-0.44531 -0.664066,-0.29687 -1.214846,-0.6875 -1.652344,-1.17187 -0.437502,-0.48438 -0.765626,-1.03516 -0.984375,-1.65235 -0.210938,-0.62499 -0.316407,-1.26171 -0.316406,-1.91015 -10e-7,-0.72656 0.121093,-1.40625 0.363281,-2.03907 0.249999,-0.6328 0.597655,-1.18358 1.042969,-1.65234 0.44531,-0.46874 0.976559,-0.83593 1.59375,-1.10156 0.617183,-0.26562 1.29687,-0.39843 2.039062,-0.39844 0.304682,10e-6 0.593744,0.0313 0.867188,0.0937 0.27343,0.0625 0.527336,0.14845 0.761718,0.25781 0.234368,0.10157 0.445305,0.22267 0.632813,0.36328 0.195304,0.13283 0.363273,0.27345 0.503906,0.42188 l -0.01172,-0.9375 1.910157,0 0,3.67969"
         style="font-size:24px;font-weight:bold;fill:#404040;font-family:Rokkitt;-inkscape-font-specification:Rokkitt Bold"
         id="path21836" />
      <path
         d="m 100.5,565.37195 c -0.44532,0.57812 -1.046885,1.02734 -1.804688,1.34765 -0.75782,0.32032 -1.648444,0.48047 -2.671875,0.48047 -0.85938,0 -1.632817,-0.1289 -2.320312,-0.38672 -0.687503,-0.26562 -1.27344,-0.62499 -1.757813,-1.07812 -0.476564,-0.46094 -0.843751,-1.0039 -1.101562,-1.62891 -0.257813,-0.63281 -0.386719,-1.3164 -0.386719,-2.05078 0,-0.7578 0.136718,-1.45702 0.410156,-2.09765 0.273437,-0.64062 0.652342,-1.1914 1.136719,-1.65235 0.492185,-0.46874 1.070309,-0.83202 1.734375,-1.08984 0.664058,-0.2578 1.39062,-0.38671 2.179688,-0.38672 0.828118,10e-6 1.55468,0.14454 2.179687,0.43359 0.624991,0.28908 1.144522,0.69142 1.558594,1.20703 0.42186,0.50782 0.73827,1.10548 0.94922,1.79297 0.21093,0.68751 0.31639,1.4297 0.31641,2.22657 l -8.039068,0 c 0.03125,0.42187 0.117185,0.8125 0.257813,1.17187 0.148434,0.35938 0.355465,0.67188 0.621094,0.9375 0.273433,0.25782 0.605464,0.46094 0.996093,0.60938 0.398433,0.14843 0.855463,0.22265 1.371094,0.22265 0.554681,0 1.105462,-0.10937 1.652344,-0.32812 0.554679,-0.21875 1.039053,-0.53516 1.453125,-0.94922 L 100.5,565.37195 m -1.816406,-4.26563 c -0.0547,-0.37499 -0.156259,-0.71874 -0.304688,-1.03125 -0.140633,-0.31249 -0.328133,-0.58202 -0.5625,-0.80859 -0.22657,-0.23437 -0.500007,-0.41405 -0.820312,-0.53906 -0.32032,-0.13281 -0.683601,-0.19921 -1.089844,-0.19922 -0.882818,10e-6 -1.570317,0.23438 -2.0625,0.70312 -0.484379,0.46876 -0.792972,1.09376 -0.925781,1.875 l 5.765625,0"
         style="font-size:24px;font-weight:bold;fill:#404040;font-family:Rokkitt;-inkscape-font-specification:Rokkitt Bold"
         id="path21838" />
    </g>
    <text
       xml:space="preserve"
       style="font-size:8.98284626px;font-style:normal;font-variant:normal;font-weight:normal;font-stretch:normal;line-height:125%;letter-spacing:0px;word-spacing:0px;fill:#000000;fill-opacity:1;stroke:none;font-family:Sans;-inkscape-font-specification:Helvetica"
       x="0"
       y="527.36218"
       id="text21817"
       sodipodi:linespacing="125%"><tspan
         sodipodi:role="line"
         id="tspan21819"
         x="0"
         y="527.36218">Logo typeface: Rokkit</tspan></text>
    <rect
       style="color:#000000;fill:#999999;fill-opacity:1;fill-rule:nonzero;stroke:none;stroke-width:0.82966393;marker:none;visibility:visible;display:inline;overflow:visible;enable-background:accumulate"
       id="rect22010"
       width="20"
       height="20"
       x="510"
       y="552.36218" />
    <path
       sodipodi:nodetypes="csssccc"
       inkscape:connector-curvature="0"
       id="path31118"
       d="m 4,599.45392 c 0,1.21614 1.7281885,1.00173 2.3626843,0.55778 l 9.1614517,-6.41031 c 0.634486,-0.44396 0.634486,-1.14977 0,-1.59373 l -9.1614517,-6.4103 C 5.5183267,585.11408 4,585.37574 4,586.38132 z"
       style="color:#000000;fill:#ffffff;fill-opacity:1;fill-rule:nonzero;stroke:none;stroke-width:1;marker:none;visibility:visible;display:inline;overflow:visible;enable-background:accumulate" />
    <path
       style="display:inline;color:#000000;fill:#f2f3ed;fill-opacity:1;fill-rule:nonzero;stroke:none;stroke-width:5;marker:none;visibility:visible;overflow:visible;enable-background:accumulate"
       d="m 494.20638,581.36218 -2.39151,2.38552 1.79363,1.78916 2.3915,-2.38554 z m -2.98938,2.98191 -6.02126,6.03618 -1.19574,2.38554 0.59787,0.59637 2.39149,-1.19278 6.02125,-6.03615 z"
       id="path6689"
       inkscape:connector-curvature="0"
       sodipodi:nodetypes="cccccccccccc" />
    <g
       id="g14895"
       transform="translate(0,-1.46143)"
       style="display:inline;fill:#f2f3ed;fill-opacity:1">
      <path
         sodipodi:nodetypes="sccs"
         inkscape:connector-curvature="0"
         id="path39349"
         d="m 490,559.28505 c -3.42105,0 -6.31579,0.8 -10,3.46667 6.87495,-2.38958 13.19074,-2.38958 20,0 -3.68421,-2.66667 -6.57895,-3.46667 -10,-3.46667 z"
         style="color:#000000;fill:#f2f3ed;fill-opacity:1;fill-rule:nonzero;stroke:none;stroke-width:1;marker:none;visibility:visible;display:inline;overflow:visible;enable-background:accumulate" />
      <path
         inkscape:connector-curvature="0"
         id="path43784"
         d="m 489.99995,560.36218 c -2.20914,0 -4,1.79086 -4,4 0,2.20914 1.79086,4 4,4 2.20914,0 4,-1.79086 4,-4 0,-2.20914 -1.79086,-4 -4,-4 z m 0,2 c 1.10457,0 2,0.89543 2,2 0,1.10457 -0.89543,2 -2,2 -1.10457,0 -2,-0.89543 -2,-2 0,-1.10457 0.89543,-2 2,-2 z"
         style="color:#000000;fill:#f2f3ed;fill-opacity:1;fill-rule:nonzero;stroke:none;stroke-width:1;marker:none;visibility:visible;display:inline;overflow:visible;enable-background:accumulate" />
    </g>
    <path
       style="fill:#ec540f;fill-opacity:1;stroke:none;display:inline"
       d="m 480.32135,667.36218 c -41.71171,-23.64852 -7.44851,-45.5578 -0.28651,-29.49576 8.5945,-16.06204 40.10742,7.30094 0.28651,29.49576 z"
       id="path31257"
       inkscape:connector-curvature="0"
       sodipodi:nodetypes="ccc" />
  </g>
</svg>
